<svg xmlns="http://www.w3.org/2000/svg" xmlns:xlink="http://www.w3.org/1999/xlink" width="15" height="16" viewBox="0 0 15 16">
  <path id="b6fea" transform="translate(-16 -20)" d="M22.942 34.005c.493 0 .942-.479.942-1.005h2c0 1.629-1.347 3.005-2.942 3.005C21.347 36.005 20 34.629 20 33h2c0 .526.449 1.005.942 1.005m6.867-5.362c.398.414.5 1.008.26 1.515-.244.511-.789.842-1.39.842H17.517c-.6 0-1.146-.33-1.388-.842a1.34 1.34 0 0 1 .26-1.514l1.413-1.467a.242.242 0 0 0 .071-.169v-2.19c0-2.734 2.478-4.951 5.48-4.812 2.785.12 4.97 2.282 4.97 4.922v2.08c0 .062.025.121.071.169zm-2.23.494l-.669-.694a2.055 2.055 0 0 1-.587-1.428v-2.083c0-1.612-1.376-2.982-3.067-3.054l-.158-.004c-1.778 0-3.225 1.322-3.225 2.948v2.193c0 .53-.209 1.036-.588 1.429l-.668.693z"/>
</svg>
