<svg xmlns="http://www.w3.org/2000/svg" xmlns:xlink="http://www.w3.org/1999/xlink" width="16" height="16" viewBox="0 0 16 16">
    <path id="yz2qb"  transform="translate(-288 -20)" d="M303.729 27.31l-2.875-3.024a.897.897 0 0 0-1.312 0c-.361.38-.361 1 0 1.38l1.289 1.357h-5.902c-.512 0-.929.439-.929.976 0 .539.417.977.929.977h5.902l-1.289 1.357c-.362.381-.362 1 0 1.38a.9.9 0 0 0 .656.287c.25 0 .483-.103.656-.286l2.875-3.024c.361-.38.361-1 0-1.38"/><path id="yz2qa" d="M288 20h10v16h-10z"/>
    <path transform="translate(-288 -20)" id="yz2qd" d="M297.025 34.056h-6.037a1.039 1.039 0 0 1-1.039-1.037V22.981c0-.572.466-1.036 1.039-1.036h6.037a.975.975 0 0 0 .975-.972.975.975 0 0 0-.975-.973h-6.037A2.987 2.987 0 0 0 288 22.98v10.04c0 1.644 1.34 2.98 2.988 2.98h6.037a.975.975 0 0 0 .975-.972.975.975 0 0 0-.975-.972"/>
</svg>
