<svg xmlns="http://www.w3.org/2000/svg" xmlns:xlink="http://www.w3.org/1999/xlink" width="16" height="16" viewBox="0 0 16 16">
  <path id="1tv1a" transform="translate(-60 -20)" d="M71.435 28.615C74.204 29.68 76 32.041 76 35a1 1 0 0 1-1 1H61a1 1 0 0 1-1-1c0-2.959 1.796-5.32 4.565-6.385A4.972 4.972 0 0 1 63 25c0-2.757 2.243-5 5-5s5 2.243 5 5a4.972 4.972 0 0 1-1.565 3.615zM65 25c0 1.654 1.346 3 3 3s3-1.346 3-3-1.346-3-3-3-3 1.346-3 3zm8.9 9c-.495-2.399-2.783-4-5.9-4-3.062 0-5.385 1.631-5.895 4z"/>
</svg>
